<svg width="22" height="22" viewBox="0 0 22 22" fill="none" xmlns="http://www.w3.org/2000/svg">
<g id="basil:instagram-solid">
<path id="Vector" d="M11 8.021C10.2099 8.021 9.45215 8.33487 8.89345 8.89357C8.33475 9.45228 8.02087 10.21 8.02087 11.0002C8.02087 11.7903 8.33475 12.548 8.89345 13.1068C9.45215 13.6655 10.2099 13.9793 11 13.9793C11.7902 13.9793 12.5479 13.6655 13.1066 13.1068C13.6653 12.548 13.9792 11.7903 13.9792 11.0002C13.9792 10.21 13.6653 9.45228 13.1066 8.89357C12.5479 8.33487 11.7902 8.021 11 8.021Z" fill="#111826"/>
<path id="Vector_2" fill-rule="evenodd" clip-rule="evenodd" d="M6.20587 2.82495C9.39223 2.47176 12.6079 2.47176 15.7942 2.82495C17.535 3.01929 18.9384 4.3897 19.1428 6.13687C19.5206 9.3678 19.5206 12.6318 19.1428 15.8627C18.9384 17.6099 17.535 18.9803 15.7951 19.1755C12.6085 19.5288 9.39253 19.5288 6.20587 19.1755C4.46512 18.9803 3.06171 17.6099 2.85729 15.8636C2.47937 12.6324 2.47937 9.36811 2.85729 6.13687C3.06171 4.3897 4.46512 3.01929 6.20587 2.82495ZM15.5834 5.49979C15.3403 5.49979 15.1071 5.59636 14.9352 5.76827C14.7633 5.94018 14.6667 6.17334 14.6667 6.41645C14.6667 6.65957 14.7633 6.89272 14.9352 7.06463C15.1071 7.23654 15.3403 7.33312 15.5834 7.33312C15.8265 7.33312 16.0596 7.23654 16.2316 7.06463C16.4035 6.89272 16.5 6.65957 16.5 6.41645C16.5 6.17334 16.4035 5.94018 16.2316 5.76827C16.0596 5.59636 15.8265 5.49979 15.5834 5.49979ZM6.64587 10.9998C6.64587 9.84499 7.10461 8.73749 7.92118 7.92093C8.73774 7.10436 9.84524 6.64562 11 6.64562C12.1548 6.64562 13.2623 7.10436 14.0789 7.92093C14.8955 8.73749 15.3542 9.84499 15.3542 10.9998C15.3542 12.1546 14.8955 13.2621 14.0789 14.0786C13.2623 14.8952 12.1548 15.354 11 15.354C9.84524 15.354 8.73774 14.8952 7.92118 14.0786C7.10461 13.2621 6.64587 12.1546 6.64587 10.9998Z" fill="#111826"/>
</g>
</svg>
